<svg width="68" height="68" viewBox="0 0 68 68" fill="none" xmlns="http://www.w3.org/2000/svg">
<g clip-path="url(#clip0_99_725)">
<path d="M45.5706 27.8573C44.3493 29.0787 44.628 31.6413 45.604 33.4133C45.9765 34.1159 46.0844 34.9288 45.908 35.7042C45.7317 36.4795 45.2827 37.1658 44.643 37.6381C44.0032 38.1103 43.2152 38.3372 42.4223 38.2774C41.6293 38.2175 40.8842 37.8749 40.3226 37.312L30.688 27.6773C30.1284 27.115 29.7887 26.3708 29.7306 25.5796C29.6724 24.7884 29.8997 24.0026 30.3711 23.3645C30.8425 22.7264 31.5268 22.2783 32.3002 22.1013C33.0735 21.9244 33.8847 22.0304 34.5866 22.4C36.3586 23.3747 38.9213 23.6547 40.1426 22.4333L43.448 19.124C44.179 18.4258 45.151 18.0361 46.162 18.0361C47.1729 18.0361 48.1449 18.4258 48.876 19.124C49.233 19.4806 49.5161 19.9041 49.7094 20.3703C49.9026 20.8364 50.002 21.3361 50.002 21.8407C50.002 22.3453 49.9026 22.8449 49.7094 23.3111C49.5161 23.7772 49.233 24.2007 48.876 24.5573L45.5706 27.8573ZM20.6253 41.1293C19.968 41.7927 19.5383 42.6476 19.3981 43.5709C19.258 44.4942 19.4145 45.4381 19.8453 46.2667L18.3906 47.724C18.1407 47.974 18.0002 48.3131 18.0002 48.6667C18.0002 49.0202 18.1407 49.3593 18.3906 49.6093C18.6407 49.8593 18.9797 49.9997 19.3333 49.9997C19.6868 49.9997 20.0259 49.8593 20.276 49.6093L21.7333 48.1547C22.56 48.5949 23.5068 48.7567 24.4328 48.6159C25.3588 48.4751 26.2147 48.0394 26.8733 47.3733L36.74 37.5067L30.4973 31.2587L20.6253 41.1293Z" fill="#46BD84"/>
</g>
<rect opacity="0.15" width="68" height="68" rx="25" fill="#46BD84"/>
<defs>
<clipPath id="clip0_99_725">
<rect width="32" height="32" fill="white" transform="translate(18 18)"/>
</clipPath>
</defs>
</svg>
