<svg width="68" height="68" viewBox="0 0 68 68" fill="none" xmlns="http://www.w3.org/2000/svg">
<rect opacity="0.15" width="68" height="68" rx="25" fill="#52B6DF"/>
<path d="M39.3333 30V27.3333H28.6667V30C26.8992 30.0021 25.2047 30.7052 23.955 31.955C22.7052 33.2047 22.0021 34.8992 22 36.6667V43.3333C22.0021 45.1008 22.7052 46.7953 23.955 48.045C25.2047 49.2948 26.8992 49.9979 28.6667 50H39.3333C41.1008 49.9979 42.7953 49.2948 44.045 48.045C45.2948 46.7953 45.9979 45.1008 46 43.3333V36.6667C45.9979 34.8992 45.2948 33.2047 44.045 31.955C42.7953 30.7052 41.1008 30.0021 39.3333 30ZM38 40.6667H35.3333V43.3333C35.3333 43.687 35.1929 44.0261 34.9428 44.2761C34.6928 44.5262 34.3536 44.6667 34 44.6667C33.6464 44.6667 33.3072 44.5262 33.0572 44.2761C32.8071 44.0261 32.6667 43.687 32.6667 43.3333V40.6667H30C29.6464 40.6667 29.3072 40.5262 29.0572 40.2761C28.8071 40.0261 28.6667 39.687 28.6667 39.3333C28.6667 38.9797 28.8071 38.6406 29.0572 38.3905C29.3072 38.1405 29.6464 38 30 38H32.6667V35.3333C32.6667 34.9797 32.8071 34.6406 33.0572 34.3905C33.3072 34.1405 33.6464 34 34 34C34.3536 34 34.6928 34.1405 34.9428 34.3905C35.1929 34.6406 35.3333 34.9797 35.3333 35.3333V38H38C38.3536 38 38.6928 38.1405 38.9428 38.3905C39.1929 38.6406 39.3333 38.9797 39.3333 39.3333C39.3333 39.687 39.1929 40.0261 38.9428 40.2761C38.6928 40.5262 38.3536 40.6667 38 40.6667ZM38.6667 24.6667H29.3333C28.4493 24.6667 27.6014 24.3155 26.9763 23.6904C26.3512 23.0652 26 22.2174 26 21.3333C26 20.4493 26.3512 19.6014 26.9763 18.9763C27.6014 18.3512 28.4493 18 29.3333 18H38.6667C39.5507 18 40.3986 18.3512 41.0237 18.9763C41.6488 19.6014 42 20.4493 42 21.3333C42 22.2174 41.6488 23.0652 41.0237 23.6904C40.3986 24.3155 39.5507 24.6667 38.6667 24.6667Z" fill="#52B6DF"/>
</svg>
