<svg width="48" height="48" viewBox="0 0 48 48" fill="none" xmlns="http://www.w3.org/2000/svg">
<rect x="-0.000244141" width="48" height="48" rx="20" fill="#F59E0B"/>
<g clip-path="url(#clip0_49_176)">
<path d="M28.1667 14H20.6667V27.3333H32.3334V18.1667C32.3334 17.0616 31.8944 16.0018 31.113 15.2204C30.3316 14.439 29.2718 14 28.1667 14V14Z" fill="white"/>
<path d="M17.6625 27.3838C17.8284 27.3499 17.9973 27.3329 18.1667 27.333H19V14.083C18.0589 14.2751 17.213 14.7865 16.6056 15.5306C15.9982 16.2747 15.6665 17.2058 15.6667 18.1663V28.1872C16.2492 27.7476 16.9379 27.4704 17.6625 27.3838Z" fill="white"/>
<path d="M32.3334 29H18.1667C17.5036 29 16.8678 29.2634 16.3989 29.7322C15.9301 30.2011 15.6667 30.837 15.6667 31.5C15.6667 32.163 15.9301 32.7989 16.3989 33.2678C16.8678 33.7366 17.5036 34 18.1667 34H28.1667C28.7139 34 29.2557 33.8922 29.7612 33.6828C30.2667 33.4734 30.7261 33.1665 31.113 32.7796C31.4999 32.3927 31.8068 31.9334 32.0162 31.4278C32.2256 30.9223 32.3334 30.3805 32.3334 29.8333V29Z" fill="white"/>
</g>
<defs>
<clipPath id="clip0_49_176">
<rect width="20" height="20" fill="white" transform="translate(14 14)"/>
</clipPath>
</defs>
</svg>
