<svg width="48" height="48" viewBox="0 0 48 48" fill="none" xmlns="http://www.w3.org/2000/svg">
<rect width="48" height="48" rx="20" fill="#316D86"/>
<g clip-path="url(#clip0_49_163)">
<path d="M32.5 15.8029C32.0249 15.4065 31.4676 15.1209 30.8684 14.9668C30.2692 14.8127 29.6432 14.794 29.0358 14.912L27.5658 15.272C26.7987 15.4126 26.1051 15.8177 25.6059 16.4169C25.1066 17.016 24.8332 17.7713 24.8333 18.5512V31.4404C24.2807 31.5212 23.7193 31.5212 23.1667 31.4404V18.5512C23.1694 17.7785 22.9024 17.029 22.4116 16.4322C21.9208 15.8354 21.237 15.4286 20.4783 15.282L18.9167 14.902C18.316 14.7921 17.6984 14.8156 17.1078 14.9708C16.5172 15.126 15.9679 15.4091 15.4988 15.8001C15.0297 16.1911 14.6523 16.6804 14.3933 17.2335C14.1343 17.7865 14 18.3897 14 19.0004V27.9945C14 28.9702 14.3425 29.9149 14.9676 30.664C15.5927 31.4131 16.4609 31.9191 17.4208 32.0937L22.6592 33.0462C23.5458 33.2073 24.4542 33.2073 25.3408 33.0462L30.5833 32.0937C31.5425 31.9182 32.4097 31.4119 33.034 30.6629C33.6583 29.9138 34.0001 28.9696 34 27.9945V19.0004C34.0004 18.3899 33.8662 17.7869 33.6069 17.2342C33.3476 16.6815 32.9697 16.1928 32.5 15.8029Z" fill="white"/>
</g>
<defs>
<clipPath id="clip0_49_163">
<rect width="20" height="20" fill="white" transform="translate(14 14)"/>
</clipPath>
</defs>
</svg>
