<svg width="68" height="68" viewBox="0 0 68 68" fill="none" xmlns="http://www.w3.org/2000/svg">
<rect opacity="0.15" width="68" height="68" rx="25" fill="#F59E0B"/>
<g clip-path="url(#clip0_99_727)">
<path d="M49.6667 47.3333H23C22.6464 47.3333 22.3072 47.1929 22.0572 46.9428C21.8071 46.6928 21.6667 46.3536 21.6667 46V19.3333C21.6667 18.9797 21.5262 18.6406 21.2761 18.3905C21.0261 18.1405 20.687 18 20.3333 18C19.9797 18 19.6406 18.1405 19.3905 18.3905C19.1405 18.6406 19 18.9797 19 19.3333V46C19 47.0609 19.4214 48.0783 20.1716 48.8284C20.9217 49.5786 21.9391 50 23 50H49.6667C50.0203 50 50.3594 49.8595 50.6095 49.6095C50.8595 49.3594 51 49.0203 51 48.6667C51 48.313 50.8595 47.9739 50.6095 47.7239C50.3594 47.4738 50.0203 47.3333 49.6667 47.3333Z" fill="#F59E0B"/>
<path d="M39 44.667C39.3536 44.667 39.6927 44.5265 39.9428 44.2765C40.1928 44.0264 40.3333 43.6873 40.3333 43.3337V34.0003C40.3333 33.6467 40.1928 33.3076 39.9428 33.0575C39.6927 32.8075 39.3536 32.667 39 32.667C38.6463 32.667 38.3072 32.8075 38.0572 33.0575C37.8071 33.3076 37.6666 33.6467 37.6666 34.0003V43.3337C37.6666 43.6873 37.8071 44.0264 38.0572 44.2765C38.3072 44.5265 38.6463 44.667 39 44.667Z" fill="#F59E0B"/>
<path d="M28.3333 44.667C28.687 44.667 29.0261 44.5265 29.2761 44.2765C29.5262 44.0264 29.6667 43.6873 29.6667 43.3337V34.0003C29.6667 33.6467 29.5262 33.3076 29.2761 33.0575C29.0261 32.8075 28.687 32.667 28.3333 32.667C27.9797 32.667 27.6406 32.8075 27.3905 33.0575C27.1405 33.3076 27 33.6467 27 34.0003V43.3337C27 43.6873 27.1405 44.0264 27.3905 44.2765C27.6406 44.5265 27.9797 44.667 28.3333 44.667Z" fill="#F59E0B"/>
<path d="M44.3333 44.6667C44.687 44.6667 45.0261 44.5262 45.2761 44.2761C45.5262 44.0261 45.6667 43.687 45.6667 43.3333V27.3333C45.6667 26.9797 45.5262 26.6406 45.2761 26.3905C45.0261 26.1405 44.687 26 44.3333 26C43.9797 26 43.6406 26.1405 43.3905 26.3905C43.1405 26.6406 43 26.9797 43 27.3333V43.3333C43 43.687 43.1405 44.0261 43.3905 44.2761C43.6406 44.5262 43.9797 44.6667 44.3333 44.6667Z" fill="#F59E0B"/>
<path d="M33.6667 44.6667C34.0203 44.6667 34.3595 44.5262 34.6095 44.2761C34.8596 44.0261 35 43.687 35 43.3333V27.3333C35 26.9797 34.8596 26.6406 34.6095 26.3905C34.3595 26.1405 34.0203 26 33.6667 26C33.3131 26 32.9739 26.1405 32.7239 26.3905C32.4739 26.6406 32.3334 26.9797 32.3334 27.3333V43.3333C32.3334 43.687 32.4739 44.0261 32.7239 44.2761C32.9739 44.5262 33.3131 44.6667 33.6667 44.6667Z" fill="#F59E0B"/>
</g>
<defs>
<clipPath id="clip0_99_727">
<rect width="32" height="32" fill="white" transform="translate(19 18)"/>
</clipPath>
</defs>
</svg>
