<svg width="68" height="68" viewBox="0 0 68 68" fill="none" xmlns="http://www.w3.org/2000/svg">
<rect opacity="0.15" width="68" height="68" rx="25" fill="#4178D4"/>
<g clip-path="url(#clip0_99_735)">
<path d="M47.6 20.8842C46.8399 20.25 45.9481 19.7931 44.9894 19.5465C44.0307 19.3 43.0291 19.27 42.0573 19.4589L39.7053 20.0349C38.4779 20.2598 37.3682 20.908 36.5694 21.8666C35.7706 22.8253 35.3332 24.0337 35.3333 25.2815V45.9042C34.4491 46.0335 33.5508 46.0335 32.6667 45.9042V25.2815C32.6711 24.0452 32.2438 22.8461 31.4585 21.8911C30.6732 20.9362 29.5793 20.2853 28.3653 20.0509L25.8667 19.4429C24.9055 19.267 23.9175 19.3045 22.9725 19.5528C22.0275 19.8011 21.1486 20.2541 20.3981 20.8797C19.6476 21.5054 19.0437 22.2883 18.6293 23.1731C18.2149 24.058 18.0001 25.0231 18 26.0002V40.3909C18.0001 41.9519 18.548 43.4635 19.5482 44.662C20.5484 45.8606 21.9375 46.6701 23.4733 46.9495L31.8547 48.4735C33.2733 48.7313 34.7267 48.7313 36.1453 48.4735L44.5333 46.9495C46.068 46.6687 47.4555 45.8586 48.4544 44.6602C49.4533 43.4618 50.0002 41.951 50 40.3909V26.0002C50.0006 25.0235 49.7858 24.0586 49.371 23.1743C48.9562 22.2901 48.3515 21.5081 47.6 20.8842Z" fill="#4178D4"/>
</g>
<defs>
<clipPath id="clip0_99_735">
<rect width="32" height="32" fill="white" transform="translate(18 18)"/>
</clipPath>
</defs>
</svg>
