<svg width="16" height="16" viewBox="0 0 16 16" fill="none" xmlns="http://www.w3.org/2000/svg">
<path d="M4.66667 3.99984H15.3333C15.5101 3.99984 15.6797 3.9296 15.8047 3.80457C15.9298 3.67955 16 3.50998 16 3.33317C16 3.15636 15.9298 2.98679 15.8047 2.86177C15.6797 2.73674 15.5101 2.6665 15.3333 2.6665H4.66667C4.48986 2.6665 4.32029 2.73674 4.19526 2.86177C4.07024 2.98679 4 3.15636 4 3.33317C4 3.50998 4.07024 3.67955 4.19526 3.80457C4.32029 3.9296 4.48986 3.99984 4.66667 3.99984Z" fill="#64748B"/>
<path d="M15.3333 7.3335H4.66667C4.48986 7.3335 4.32029 7.40373 4.19526 7.52876C4.07024 7.65378 4 7.82335 4 8.00016C4 8.17697 4.07024 8.34654 4.19526 8.47157C4.32029 8.59659 4.48986 8.66683 4.66667 8.66683H15.3333C15.5101 8.66683 15.6797 8.59659 15.8047 8.47157C15.9298 8.34654 16 8.17697 16 8.00016C16 7.82335 15.9298 7.65378 15.8047 7.52876C15.6797 7.40373 15.5101 7.3335 15.3333 7.3335Z" fill="#64748B"/>
<path d="M15.3333 12H4.66667C4.48986 12 4.32029 12.0702 4.19526 12.1953C4.07024 12.3203 4 12.4899 4 12.6667C4 12.8435 4.07024 13.013 4.19526 13.1381C4.32029 13.2631 4.48986 13.3333 4.66667 13.3333H15.3333C15.5101 13.3333 15.6797 13.2631 15.8047 13.1381C15.9298 13.013 16 12.8435 16 12.6667C16 12.4899 15.9298 12.3203 15.8047 12.1953C15.6797 12.0702 15.5101 12 15.3333 12Z" fill="#64748B"/>
<path d="M1.33333 4.66667C2.06971 4.66667 2.66667 4.06971 2.66667 3.33333C2.66667 2.59695 2.06971 2 1.33333 2C0.596954 2 0 2.59695 0 3.33333C0 4.06971 0.596954 4.66667 1.33333 4.66667Z" fill="#64748B"/>
<path d="M1.33333 9.33317C2.06971 9.33317 2.66667 8.73622 2.66667 7.99984C2.66667 7.26346 2.06971 6.6665 1.33333 6.6665C0.596954 6.6665 0 7.26346 0 7.99984C0 8.73622 0.596954 9.33317 1.33333 9.33317Z" fill="#64748B"/>
<path d="M1.33333 14.0002C2.06971 14.0002 2.66667 13.4032 2.66667 12.6668C2.66667 11.9304 2.06971 11.3335 1.33333 11.3335C0.596954 11.3335 0 11.9304 0 12.6668C0 13.4032 0.596954 14.0002 1.33333 14.0002Z" fill="#64748B"/>
</svg>
