<svg width="68" height="68" viewBox="0 0 68 68" fill="none" xmlns="http://www.w3.org/2000/svg">
<rect opacity="0.15" width="68" height="68" rx="25" fill="#64748B"/>
<path d="M31.537 25.4078C31.6049 25.546 31.6497 25.694 31.6698 25.8462L32.0411 31.3661L32.2253 34.1405C32.2272 34.4258 32.272 34.7093 32.3582 34.9818C32.5808 35.5105 33.1162 35.8465 33.6987 35.8231L42.5751 35.2425C42.9594 35.2361 43.3306 35.3799 43.6069 35.6421C43.8372 35.8606 43.9859 36.1465 44.0327 36.454L44.0484 36.6407C43.6811 41.7269 39.9455 45.9693 34.8698 47.0644C29.794 48.1595 24.5891 45.8461 22.0809 41.3803C21.3578 40.0828 20.9062 38.6567 20.7525 37.1857C20.6883 36.7502 20.66 36.3104 20.6679 35.8705C20.66 30.4174 24.5433 25.703 29.9791 24.5665C30.6333 24.4646 31.2747 24.811 31.537 25.4078Z" fill="#64748B"/>
<path opacity="0.4" d="M35.1599 20.6681C41.2398 20.8228 46.3497 25.1947 47.3333 31.0834L47.3239 31.1268L47.297 31.19L47.3008 31.3635C47.2868 31.5933 47.1981 31.8144 47.0452 31.993C46.8859 32.179 46.6683 32.3057 46.4287 32.3549L46.2826 32.3749L36.0415 33.0385C35.7009 33.0721 35.3617 32.9622 35.1084 32.7363C34.8973 32.548 34.7623 32.2938 34.7242 32.0199L34.0368 21.7937C34.0248 21.7592 34.0248 21.7217 34.0368 21.6871C34.0462 21.4052 34.1703 21.1388 34.3813 20.9473C34.5924 20.7558 34.8728 20.6553 35.1599 20.6681Z" fill="#64748B"/>
</svg>
