<svg width="68" height="68" viewBox="0 0 68 68" fill="none" xmlns="http://www.w3.org/2000/svg">
<g clip-path="url(#clip0_99_726)">
<path d="M39.3867 23.3337C38.5123 23.3358 37.6626 23.6234 36.9668 24.153C36.2709 24.6825 35.7671 25.4248 35.5321 26.267L30.1334 45.691C30.0043 46.1593 29.7264 46.5728 29.3415 46.8692C28.9566 47.1655 28.4858 47.3285 28.0001 47.3337C27.525 47.3274 27.0632 47.176 26.6767 46.8997C26.2901 46.6235 25.9973 46.2357 25.8374 45.7883L22.1134 35.5483C21.8707 34.8506 21.464 34.2214 20.9276 33.7135C20.3912 33.2056 19.7407 32.8339 19.0307 32.6297C18.687 32.5464 18.3904 32.33 18.2063 32.028C18.0221 31.7261 17.9655 31.3634 18.0487 31.0197C18.132 30.6759 18.3484 30.3794 18.6504 30.1952C18.9523 30.0111 19.315 29.9544 19.6587 30.0377C20.7976 30.3429 21.8447 30.9214 22.7093 31.723C23.5739 32.5246 24.2298 33.5251 24.6201 34.6377L27.9187 43.7043L32.9641 25.5497C33.3569 24.1475 34.1968 22.9118 35.356 22.0305C36.5153 21.1493 37.9305 20.6705 39.3867 20.667H48.6667C49.0203 20.667 49.3595 20.8075 49.6095 21.0575C49.8596 21.3076 50.0001 21.6467 50.0001 22.0003C50.0001 22.3539 49.8596 22.6931 49.6095 22.9431C49.3595 23.1932 49.0203 23.3337 48.6667 23.3337H39.3867ZM49.4667 34.267C49.1838 34.0548 48.8282 33.9637 48.4782 34.0137C48.1281 34.0637 47.8122 34.2508 47.6001 34.5337L44.6667 38.4443L41.7334 34.5337C41.5212 34.2508 41.2054 34.0637 40.8553 34.0137C40.5052 33.9637 40.1496 34.0548 39.8667 34.267C39.5838 34.4792 39.3968 34.795 39.3468 35.1451C39.2968 35.4952 39.3879 35.8508 39.6001 36.1337L43.0001 40.667L39.6001 45.2003C39.3879 45.4832 39.2968 45.8388 39.3468 46.1889C39.3968 46.539 39.5838 46.8548 39.8667 47.067C40.1496 47.2792 40.5052 47.3703 40.8553 47.3203C41.2054 47.2702 41.5212 47.0832 41.7334 46.8003L44.6667 42.8897L47.6001 46.8003C47.7051 46.9404 47.8367 47.0584 47.9874 47.1476C48.1381 47.2368 48.3048 47.2955 48.4782 47.3203C48.6515 47.345 48.828 47.3354 48.9976 47.2919C49.1673 47.2485 49.3267 47.172 49.4667 47.067C49.6068 46.9619 49.7248 46.8303 49.814 46.6796C49.9032 46.529 49.9619 46.3622 49.9867 46.1889C50.0114 46.0156 50.0018 45.839 49.9583 45.6694C49.9149 45.4998 49.8385 45.3404 49.7334 45.2003L46.3334 40.667L49.7334 36.1337C49.8385 35.9936 49.9149 35.8342 49.9583 35.6646C50.0018 35.4949 50.0114 35.3184 49.9867 35.1451C49.9619 34.9718 49.9032 34.805 49.814 34.6543C49.7248 34.5037 49.6068 34.372 49.4667 34.267Z" fill="#86242E"/>
</g>
<rect opacity="0.15" width="68" height="68" rx="25" fill="#86242E"/>
<defs>
<clipPath id="clip0_99_726">
<rect width="32" height="32" fill="white" transform="translate(18 18)"/>
</clipPath>
</defs>
</svg>
