<svg width="68" height="68" viewBox="0 0 68 68" fill="none" xmlns="http://www.w3.org/2000/svg">
<rect opacity="0.15" width="68" height="68" rx="25" fill="#B45309"/>
<g clip-path="url(#clip0_99_745)">
<path d="M48.6667 35.3337H19.3333C18.9797 35.3337 18.6406 35.1932 18.3905 34.9431C18.1405 34.6931 18 34.3539 18 34.0003C18 33.6467 18.1405 33.3076 18.3905 33.0575C18.6406 32.8075 18.9797 32.667 19.3333 32.667H48.6667C49.0203 32.667 49.3594 32.8075 49.6095 33.0575C49.8595 33.3076 50 33.6467 50 34.0003C50 34.3539 49.8595 34.6931 49.6095 34.9431C49.3594 35.1932 49.0203 35.3337 48.6667 35.3337ZM43.2453 27.5017C43.4129 26.7906 43.3349 26.0437 43.0241 25.3826C42.7133 24.7214 42.1878 24.1849 41.5333 23.8603L30.8907 18.571C30.2263 18.1937 29.4751 17.9959 28.7111 17.9971C27.9471 17.9982 27.1965 18.1983 26.5333 18.5777C25.9555 18.9125 25.4778 19.3958 25.1495 19.9775C24.8213 20.5591 24.6546 21.2179 24.6667 21.8857V26.0003C24.6667 27.0612 25.0881 28.0786 25.8382 28.8288C26.5884 29.5789 27.6058 30.0003 28.6667 30.0003H39.7573C40.5379 30.0512 41.312 29.83 41.948 29.3745C42.5839 28.9189 43.0423 28.2571 43.2453 27.5017ZM30.8373 49.4563L41.548 44.1337C42.1988 43.8074 42.7204 43.271 43.0285 42.6114C43.3365 41.9517 43.4129 41.2075 43.2453 40.499C43.0423 39.7435 42.5839 39.0817 41.948 38.6262C41.312 38.1707 40.5379 37.9495 39.7573 38.0003H28.6667C27.6058 38.0003 26.5884 38.4218 25.8382 39.1719C25.0881 39.922 24.6667 40.9395 24.6667 42.0003V46.1137C24.6545 46.7814 24.8211 47.4403 25.1494 48.022C25.4776 48.6036 25.9554 49.0869 26.5333 49.4217C27.1941 49.8052 27.9454 50.005 28.7093 50.0003C29.4533 50.0026 30.1857 49.8153 30.8373 49.4563Z" fill="#B45309"/>
</g>
<defs>
<clipPath id="clip0_99_745">
<rect width="32" height="32" fill="white" transform="translate(18 18)"/>
</clipPath>
</defs>
</svg>
