<svg width="50" height="51" viewBox="0 0 50 51" fill="none" xmlns="http://www.w3.org/2000/svg">
<g filter="url(#filter0_d_49_188)">
<rect x="1" width="48" height="48" rx="20" fill="#46BD84"/>
</g>
<g clip-path="url(#clip0_49_188)">
<path d="M30.8333 14H19.1667C18.062 14.0013 17.003 14.4407 16.2218 15.2218C15.4407 16.003 15.0013 17.062 15 18.1667L15 29.8333C15.0013 30.938 15.4407 31.997 16.2218 32.7782C17.003 33.5593 18.062 33.9987 19.1667 34H30.8333C31.938 33.9987 32.997 33.5593 33.7782 32.7782C34.5593 31.997 34.9987 30.938 35 29.8333V18.1667C34.9987 17.062 34.5593 16.003 33.7782 15.2218C32.997 14.4407 31.938 14.0013 30.8333 14V14ZM31.6667 20.7325L23.955 28.4442C23.8002 28.599 23.6165 28.7218 23.4142 28.8056C23.212 28.8894 22.9952 28.9326 22.7762 28.9326C22.5573 28.9326 22.3405 28.8894 22.1383 28.8056C21.936 28.7218 21.7523 28.599 21.5975 28.4442L18.3333 25.1808C18.1767 25.0242 18.0888 24.8119 18.0888 24.5904C18.0888 24.369 18.1767 24.1566 18.3333 24C18.4899 23.8434 18.7023 23.7554 18.9237 23.7554C19.1452 23.7554 19.3576 23.8434 19.5142 24L22.7775 27.2633L30.49 19.5517C30.5675 19.4744 30.6595 19.4132 30.7607 19.3715C30.8619 19.3298 30.9703 19.3084 31.0798 19.3086C31.1893 19.3088 31.2976 19.3305 31.3987 19.3726C31.4997 19.4147 31.5915 19.4762 31.6688 19.5537C31.746 19.6313 31.8072 19.7233 31.849 19.8245C31.8907 19.9257 31.912 20.0341 31.9118 20.1436C31.9116 20.253 31.8899 20.3614 31.8478 20.4624C31.8058 20.5635 31.7442 20.6552 31.6667 20.7325Z" fill="white"/>
</g>
<defs>
<filter id="filter0_d_49_188" x="0" y="0" width="50" height="51" filterUnits="userSpaceOnUse" color-interpolation-filters="sRGB">
<feFlood flood-opacity="0" result="BackgroundImageFix"/>
<feColorMatrix in="SourceAlpha" type="matrix" values="0 0 0 0 0 0 0 0 0 0 0 0 0 0 0 0 0 0 127 0" result="hardAlpha"/>
<feOffset dy="2"/>
<feGaussianBlur stdDeviation="0.5"/>
<feColorMatrix type="matrix" values="0 0 0 0 0.25098 0 0 0 0 0.282353 0 0 0 0 0.321569 0 0 0 0.05 0"/>
<feBlend mode="normal" in2="BackgroundImageFix" result="effect1_dropShadow_49_188"/>
<feBlend mode="normal" in="SourceGraphic" in2="effect1_dropShadow_49_188" result="shape"/>
</filter>
<clipPath id="clip0_49_188">
<rect width="20" height="20" fill="white" transform="translate(15 14)"/>
</clipPath>
</defs>
</svg>
