<svg width="48" height="48" viewBox="0 0 48 48" fill="none" xmlns="http://www.w3.org/2000/svg">
<rect width="48" height="48" rx="20" fill="#27487F"/>
<path d="M34 21.0662V30.6662C34 30.8873 33.9122 31.0992 33.7559 31.2555C33.5996 31.4118 33.3877 31.4996 33.1667 31.4996C32.9456 31.4996 32.7337 31.4118 32.5774 31.2555C32.4211 31.0992 32.3333 30.8873 32.3333 30.6662V23.7929L26.1667 26.7396C25.5164 27.1234 24.7742 27.3233 24.0192 27.3179C23.2274 27.3191 22.45 27.1064 21.7692 26.7021L15.6192 23.7746C15.1357 23.5146 14.7307 23.13 14.446 22.6607C14.1613 22.1914 14.0075 21.6545 14.0003 21.1056C13.9932 20.5568 14.133 20.016 14.4054 19.5394C14.6777 19.0629 15.0726 18.6679 15.5492 18.3954C15.5717 18.3821 15.5958 18.3696 15.6192 18.3579L21.8333 15.3929C22.5042 15.0076 23.2656 14.808 24.0392 14.8146C24.8129 14.8212 25.5708 15.0338 26.235 15.4304L32.3808 18.3579C32.8658 18.6262 33.271 19.0182 33.5554 19.4939C33.8398 19.9696 33.9932 20.5121 34 21.0662ZM24.0183 28.9829C22.9521 28.9853 21.9043 28.7058 20.9808 28.1729L17.3333 26.4321V28.6821C17.3338 29.5717 17.6186 30.4378 18.1462 31.1541C18.6737 31.8704 19.4164 32.3994 20.2658 32.6637C21.4794 33.0122 22.7374 33.1815 24 33.1662C25.2627 33.1804 26.5207 33.01 27.7342 32.6604C28.5836 32.396 29.3262 31.8671 29.8538 31.1508C30.3813 30.4345 30.6662 29.5683 30.6667 28.6787V26.4362L26.9508 28.2112C26.0589 28.7237 25.047 28.9905 24.0183 28.9846V28.9829Z" fill="white"/>
</svg>
