<svg width="68" height="68" viewBox="0 0 68 68" fill="none" xmlns="http://www.w3.org/2000/svg">
<rect opacity="0.15" width="68" height="68" rx="25" fill="#2A714F"/>
<path d="M43.3333 22H24.6667C22.8992 22.0021 21.2047 22.7052 19.955 23.955C18.7052 25.2047 18.0021 26.8992 18 28.6667L18 36.6667C18.0021 38.4341 18.7052 40.1286 19.955 41.3784C21.2047 42.6282 22.8992 43.3312 24.6667 43.3333H32.6667V44.6667H28.6667C28.313 44.6667 27.9739 44.8071 27.7239 45.0572C27.4738 45.3072 27.3333 45.6464 27.3333 46C27.3333 46.3536 27.4738 46.6928 27.7239 46.9428C27.9739 47.1929 28.313 47.3333 28.6667 47.3333H39.3333C39.687 47.3333 40.0261 47.1929 40.2761 46.9428C40.5262 46.6928 40.6667 46.3536 40.6667 46C40.6667 45.6464 40.5262 45.3072 40.2761 45.0572C40.0261 44.8071 39.687 44.6667 39.3333 44.6667H35.3333V43.3333H43.3333C45.1008 43.3312 46.7953 42.6282 48.045 41.3784C49.2948 40.1286 49.9979 38.4341 50 36.6667V28.6667C49.9979 26.8992 49.2948 25.2047 48.045 23.955C46.7953 22.7052 45.1008 22.0021 43.3333 22V22Z" fill="#2A714F"/>
</svg>
